<svg version="1.1" id="Layer_1" xmlns="http://www.w3.org/2000/svg" xmlns:xlink="http://www.w3.org/1999/xlink" x="0px" y="0px"
	 width="100%" viewBox="0 0 1063 1048" enable-background="new 0 0 1063 1048" xml:space="preserve" 
>
<path fill="#E271DA" opacity="1.000000" stroke="none" 
	d="M323.788666,354.701782 
	C331.772827,341.225922 339.933929,328.338806 351.220459,317.757874 
	C360.936127,308.649597 372.038849,301.829498 384.524811,297.257019 
	C386.023651,296.708130 387.521973,296.061462 389.291351,296.883820 
	C397.607697,300.749054 405.675690,304.896088 412.162048,311.664917 
	C414.524445,314.130157 414.442047,317.154205 414.950409,319.944519 
	C416.143127,326.490936 419.636993,330.261902 426.186310,331.549164 
	C435.655212,333.410309 444.511292,337.677887 454.169434,338.832611 
	C455.496674,338.991272 456.229889,339.754913 456.870819,340.768280 
	C467.712494,357.909241 479.567352,374.398285 488.500885,392.746124 
	C494.786499,405.655579 495.527191,418.481506 490.881592,431.856384 
	C489.118713,436.931732 489.125854,441.874756 491.840271,446.730835 
	C493.969147,450.539398 493.686798,454.684601 493.151215,458.881012 
	C491.994751,467.942047 490.443420,476.953949 491.879974,486.197906 
	C492.912964,492.845154 496.451843,497.071228 502.504364,499.366547 
	C518.576904,505.461945 533.865662,503.439453 548.370605,494.575317 
	C558.872925,488.157227 568.654358,479.995880 579.914551,475.529022 
	C592.992432,470.341064 602.474548,461.372650 612.335449,452.359070 
	C631.253967,435.066315 651.324585,419.098755 670.441040,402.050934 
	C686.554688,387.680908 702.937866,373.416229 714.912537,355.070862 
	C720.083374,347.148987 725.160339,339.166595 728.703674,330.333618 
	C733.496399,318.386047 740.847839,314.233398 753.772949,315.353973 
	C764.103333,316.249573 773.466431,319.921143 782.727112,324.114716 
	C784.998474,325.143280 787.156494,326.424164 789.436035,327.432068 
	C794.504517,329.673187 798.776794,331.915314 799.678772,338.667816 
	C800.333618,343.569824 804.803223,347.040314 809.396423,349.424072 
	C819.092468,354.456055 826.891724,360.863892 830.701416,371.903503 
	C833.459290,379.895569 838.745667,386.784088 845.766296,392.006683 
	C847.182129,393.059906 848.890503,394.073090 848.607239,396.337585 
	C847.198425,407.598877 852.037903,417.448639 855.824219,427.488647 
	C858.859802,435.537964 859.044617,435.468292 850.356201,434.597137 
	C843.234680,433.883087 842.728149,433.988098 844.178833,440.982422 
	C848.291443,460.811890 844.388916,479.268677 835.811646,497.159149 
	C833.625427,501.719116 835.175903,506.678986 835.426819,511.423737 
	C836.449646,530.761597 836.797607,550.029602 832.019958,569.024353 
	C830.104614,576.639465 827.243896,583.917480 824.044434,591.032166 
	C822.475098,594.521667 821.938660,597.894775 822.140930,601.609314 
	C824.375061,642.636475 815.409363,681.552429 800.546265,719.518494 
	C791.031738,743.822266 780.787537,767.794800 770.319031,791.686584 
	C769.666504,793.175842 768.845215,794.343262 767.280762,794.706909 
	C755.901794,797.351562 746.318054,803.772827 736.269714,809.252136 
	C732.789307,811.149963 728.981750,812.445068 725.333801,814.038879 
	C715.795959,818.206177 708.589905,815.487122 701.744080,807.768921 
	C690.084229,794.623291 683.633545,779.286804 680.153748,762.429504 
	C675.453979,739.662598 676.366394,716.718933 678.628845,693.810791 
	C682.436340,655.260010 691.279358,617.703979 701.654114,580.472412 
	C702.100647,578.869934 702.641907,577.393188 703.840515,576.081726 
	C707.896057,571.644043 706.713013,566.099304 706.756897,560.838806 
	C706.760559,560.396790 706.520081,559.838257 706.203491,559.526062 
	C703.470215,556.830994 691.513245,558.958496 690.134216,562.657837 
	C689.226257,565.093445 687.601135,566.478088 685.723938,567.830811 
	C653.286194,591.205322 619.906555,613.140991 584.218628,631.240173 
	C557.364563,644.859314 529.591553,656.413330 499.626587,661.407410 
	C471.778137,666.048767 444.500824,665.044739 418.967346,651.185364 
	C399.762573,640.761108 385.322052,625.356995 374.045624,606.916260 
	C368.791779,598.324402 364.230743,589.308899 359.176239,580.160706 
	C348.835388,595.244934 340.935852,611.269287 334.545074,628.031311 
	C329.214233,642.013184 322.943329,656.020081 323.003387,671.169067 
	C323.034912,679.117432 319.643402,683.608521 314.661835,688.459961 
	C306.267670,696.634949 299.332458,705.854492 295.586212,717.237366 
	C294.068970,721.847412 293.433716,726.231750 295.162262,730.829956 
	C296.873779,735.382874 295.202911,739.087769 291.728241,741.853821 
	C286.730865,745.831970 282.698914,750.670654 278.597229,755.468201 
	C274.386871,760.392822 272.769653,766.548950 272.543945,772.622498 
	C272.017792,786.781067 264.733185,798.166687 258.434387,809.983582 
	C255.867920,814.798279 252.947113,819.495605 249.637726,823.826172 
	C244.709564,830.275146 238.127670,834.217041 229.843399,835.024719 
	C221.478012,835.840149 213.243408,834.670105 204.980682,833.704651 
	C202.730270,833.441711 201.497177,831.991821 200.197739,830.460388 
	C188.560364,816.745178 181.772522,800.516052 176.372406,783.670105 
	C166.719696,753.557922 162.396240,722.810425 166.538696,691.210571 
	C168.487381,676.345520 174.658005,662.795654 180.257278,649.131042 
	C188.571136,628.841675 197.304565,608.723083 205.964920,588.577148 
	C215.675888,565.987244 225.266907,543.341064 235.343704,520.914185 
	C247.126190,494.691132 259.073059,468.544861 271.755615,442.726959 
	C282.978302,419.880951 297.412109,398.985046 310.062622,377.015503 
	C314.357666,369.556519 319.101685,362.356049 323.788666,354.701782"/>
</svg>